<svg width="51" height="44" viewBox="0 0 51 44" fill="none" xmlns="http://www.w3.org/2000/svg">
<path d="M45.5357 0.5H5.46429C4.01507 0.5 2.6252 0.985394 1.60045 1.8494C0.5757 2.71341 0 3.88525 0 5.10714L0 38.8929C0 40.1147 0.5757 41.2866 1.60045 42.1506C2.6252 43.0146 4.01507 43.5 5.46429 43.5H21.0887V28.881H13.9169V22H21.0887V16.7555C21.0887 10.7902 25.3008 7.49518 31.7521 7.49518C34.8417 7.49518 38.0724 7.95973 38.0724 7.95973V13.8146H34.5127C31.0053 13.8146 29.9113 15.6498 29.9113 17.532V22H37.7411L36.4889 28.881H29.9113V43.5H45.5357C46.9849 43.5 48.3748 43.0146 49.3995 42.1506C50.4243 41.2866 51 40.1147 51 38.8929V5.10714C51 3.88525 50.4243 2.71341 49.3995 1.8494C48.3748 0.985394 46.9849 0.5 45.5357 0.5Z" fill="#D5A2FE"/>
</svg>
