<svg width="51" height="44" viewBox="0 0 51 44" fill="none" xmlns="http://www.w3.org/2000/svg">
<path d="M25.51 12.1172C19.1748 12.1172 14.0648 16.5258 14.0648 21.9914C14.0648 27.4571 19.1748 31.8656 25.51 31.8656C31.8451 31.8656 36.9551 27.4571 36.9551 21.9914C36.9551 16.5258 31.8451 12.1172 25.51 12.1172ZM25.51 28.411C21.416 28.411 18.0691 25.5321 18.0691 21.9914C18.0691 18.4508 21.406 15.5719 25.51 15.5719C29.6139 15.5719 32.9508 18.4508 32.9508 21.9914C32.9508 25.5321 29.6039 28.411 25.51 28.411ZM40.0928 11.7133C40.0928 12.9938 38.8975 14.0164 37.4232 14.0164C35.9391 14.0164 34.7537 12.9852 34.7537 11.7133C34.7537 10.4414 35.949 9.41018 37.4232 9.41018C38.8975 9.41018 40.0928 10.4414 40.0928 11.7133ZM47.673 14.0508C47.5037 10.9656 46.6869 8.23284 44.0672 5.98127C41.4574 3.72971 38.2898 3.02502 34.7139 2.87034C31.0283 2.68987 19.9816 2.68987 16.2961 2.87034C12.7301 3.01643 9.56249 3.72112 6.94277 5.97268C4.32304 8.22424 3.5162 10.9571 3.33691 14.0422C3.12773 17.2219 3.12773 26.7524 3.33691 29.9321C3.50624 33.0172 4.32304 35.75 6.94277 38.0016C9.56249 40.2532 12.7201 40.9578 16.2961 41.1125C19.9816 41.293 31.0283 41.293 34.7139 41.1125C38.2898 40.9664 41.4574 40.2617 44.0672 38.0016C46.6769 35.75 47.4937 33.0172 47.673 29.9321C47.8822 26.7524 47.8822 17.2305 47.673 14.0508ZM42.9117 33.3438C42.1348 35.0281 40.6307 36.3258 38.6684 37.0047C35.7299 38.0102 28.7572 37.7781 25.51 37.7781C22.2627 37.7781 15.2801 38.0016 12.3516 37.0047C10.3992 36.3344 8.89511 35.0367 8.1082 33.3438C6.94277 30.8086 7.21171 24.793 7.21171 21.9914C7.21171 19.1899 6.95273 13.1656 8.1082 10.6391C8.88515 8.95471 10.3893 7.65706 12.3516 6.97815C15.29 5.97268 22.2627 6.20471 25.51 6.20471C28.7572 6.20471 35.7398 5.98127 38.6684 6.97815C40.6207 7.64846 42.1248 8.94612 42.9117 10.6391C44.0771 13.1742 43.8082 19.1899 43.8082 21.9914C43.8082 24.793 44.0771 30.8172 42.9117 33.3438Z" fill="#D5A2FE"/>
</svg>
