<svg width="51" height="46" viewBox="0 0 51 46" fill="none" xmlns="http://www.w3.org/2000/svg">
<path d="M44.625 2.875H6.36504C4.61191 2.875 3.1875 4.17773 3.1875 5.77695V40.223C3.1875 41.8223 4.61191 43.125 6.36504 43.125H44.625C46.3781 43.125 47.8125 41.8223 47.8125 40.223V5.77695C47.8125 4.17773 46.3781 2.875 44.625 2.875ZM16.6746 37.375H10.0605V18.1664H16.6846V37.375H16.6746ZM13.3676 15.543C11.2459 15.543 9.53262 13.9887 9.53262 12.084C9.53262 10.1793 11.2459 8.625 13.3676 8.625C15.4793 8.625 17.2025 10.1793 17.2025 12.084C17.2025 13.9977 15.4893 15.543 13.3676 15.543ZM41.4674 37.375H34.8533V28.0312C34.8533 25.8031 34.8035 22.9371 31.4168 22.9371C27.9703 22.9371 27.4424 25.3629 27.4424 27.8695V37.375H20.8283V18.1664H27.1734V20.7898H27.2631C28.1496 19.2805 30.3111 17.6902 33.5285 17.6902C40.2223 17.6902 41.4674 21.6703 41.4674 26.8453V37.375Z" fill="#D5A2FE"/>
</svg>
