<svg width="53" height="46" viewBox="0 0 53 46" fill="none" xmlns="http://www.w3.org/2000/svg">
<g filter="url(#filter0_d_78_454)">
<path d="M39.4256 22.3635L42.9547 6.92602C43.2095 5.8114 42.3573 4.75 41.2076 4.75H11.8853L11.2011 1.42426C11.0305 0.595309 10.2969 0 9.44574 0H1.79167C0.802144 0 0 0.79748 0 1.78125V2.96875C0 3.95252 0.802144 4.75 1.79167 4.75H7.00863L12.2528 30.2393C10.9982 30.9566 10.1528 32.3016 10.1528 33.8438C10.1528 36.1392 12.0245 38 14.3333 38C16.6422 38 18.5139 36.1392 18.5139 33.8438C18.5139 32.6804 18.0326 31.6294 17.2579 30.875H32.9087C32.1341 31.6294 31.6528 32.6804 31.6528 33.8438C31.6528 36.1392 33.5245 38 35.8333 38C38.1422 38 40.0139 36.1392 40.0139 33.8438C40.0139 32.1982 39.0518 30.7761 37.6564 30.1028L38.0683 28.301C38.3231 27.1864 37.4709 26.125 36.3212 26.125H16.283L15.7944 23.75H37.6785C38.5151 23.75 39.2403 23.1745 39.4256 22.3635Z" fill="#A3A6A3"/>
</g>
<defs>
<filter id="filter0_d_78_454" x="0" y="0" width="53" height="46" filterUnits="userSpaceOnUse" color-interpolation-filters="sRGB">
<feFlood flood-opacity="0" result="BackgroundImageFix"/>
<feColorMatrix in="SourceAlpha" type="matrix" values="0 0 0 0 0 0 0 0 0 0 0 0 0 0 0 0 0 0 127 0" result="hardAlpha"/>
<feOffset dx="6" dy="4"/>
<feGaussianBlur stdDeviation="2"/>
<feComposite in2="hardAlpha" operator="out"/>
<feColorMatrix type="matrix" values="0 0 0 0 0 0 0 0 0 0 0 0 0 0 0 0 0 0 0.25 0"/>
<feBlend mode="normal" in2="BackgroundImageFix" result="effect1_dropShadow_78_454"/>
<feBlend mode="normal" in="SourceGraphic" in2="effect1_dropShadow_78_454" result="shape"/>
</filter>
</defs>
</svg>
