<svg width="53" height="45" viewBox="0 0 53 45" fill="none" xmlns="http://www.w3.org/2000/svg">
<g filter="url(#filter0_d_78_445)">
<path d="M41.9911 10.7917H36.9629L35.5654 6.78333C34.1293 2.66226 30.7019 0 26.8327 0H16.1667C12.2984 0 8.87014 2.66226 7.43316 6.78333L6.03566 10.7917H1.00835C0.352429 10.7917 -0.128802 11.4989 0.0307688 12.2283L0.534676 14.5408C0.646375 15.0553 1.0495 15.4167 1.51226 15.4167H3.19782C2.06991 16.5469 1.34345 18.1897 1.34345 20.0417V24.6667C1.34345 26.2199 1.86079 27.6218 2.6872 28.7068V33.9167C2.6872 35.6192 3.8907 37 5.3747 37H8.06221C9.54621 37 10.7497 35.6192 10.7497 33.9167V30.8333H32.2497V33.9167C32.2497 35.6192 33.4532 37 34.9372 37H37.6247C39.1087 37 40.3122 35.6192 40.3122 33.9167V28.7068C41.1387 27.6228 41.656 26.2209 41.656 24.6667V20.0417C41.656 18.1897 40.9295 16.5469 39.8025 15.4167H41.488C41.9508 15.4167 42.3539 15.0553 42.4656 14.5408L42.9695 12.2283C43.1283 11.4989 42.647 10.7917 41.9911 10.7917ZM12.4235 9.07367C13.0358 7.3181 14.5181 6.16667 16.1667 6.16667H26.8327C28.4814 6.16667 29.9637 7.3181 30.5759 9.07367L32.2497 13.875H10.7497L12.4235 9.07367ZM8.06221 24.6474C6.4497 24.6474 5.3747 23.4179 5.3747 21.5737C5.3747 19.7295 6.4497 18.5 8.06221 18.5C9.67471 18.5 12.0935 21.2663 12.0935 23.1105C12.0935 24.9548 9.67471 24.6474 8.06221 24.6474ZM34.9372 24.6474C33.3247 24.6474 30.906 24.9548 30.906 23.1105C30.906 21.2663 33.3247 18.5 34.9372 18.5C36.5497 18.5 37.6247 19.7295 37.6247 21.5737C37.6247 23.4179 36.5497 24.6474 34.9372 24.6474Z" fill="#A3A6A3"/>
</g>
<defs>
<filter id="filter0_d_78_445" x="0" y="0" width="53" height="45" filterUnits="userSpaceOnUse" color-interpolation-filters="sRGB">
<feFlood flood-opacity="0" result="BackgroundImageFix"/>
<feColorMatrix in="SourceAlpha" type="matrix" values="0 0 0 0 0 0 0 0 0 0 0 0 0 0 0 0 0 0 127 0" result="hardAlpha"/>
<feOffset dx="6" dy="4"/>
<feGaussianBlur stdDeviation="2"/>
<feComposite in2="hardAlpha" operator="out"/>
<feColorMatrix type="matrix" values="0 0 0 0 0 0 0 0 0 0 0 0 0 0 0 0 0 0 0.25 0"/>
<feBlend mode="normal" in2="BackgroundImageFix" result="effect1_dropShadow_78_445"/>
<feBlend mode="normal" in="SourceGraphic" in2="effect1_dropShadow_78_445" result="shape"/>
</filter>
</defs>
</svg>
