<svg width="26" height="25" viewBox="0 0 26 25" fill="none" xmlns="http://www.w3.org/2000/svg">
<g clip-path="url(#clip0_78_474)">
<path d="M23.1562 1.5625H2.84375C1.5498 1.5625 0.5 2.6123 0.5 3.90625V21.0938C0.5 22.3877 1.5498 23.4375 2.84375 23.4375H23.1562C24.4502 23.4375 25.5 22.3877 25.5 21.0938V3.90625C25.5 2.6123 24.4502 1.5625 23.1562 1.5625ZM19.0742 15.7471C19.3086 15.9814 19.3086 16.3623 19.0742 16.5967L17.0967 18.5742C16.8623 18.8086 16.4814 18.8086 16.2471 18.5742L13 15.2979L9.75293 18.5742C9.51855 18.8086 9.1377 18.8086 8.90332 18.5742L6.92578 16.5967C6.69141 16.3623 6.69141 15.9814 6.92578 15.7471L10.2021 12.5L6.92578 9.25293C6.69141 9.01855 6.69141 8.6377 6.92578 8.40332L8.90332 6.42578C9.1377 6.19141 9.51855 6.19141 9.75293 6.42578L13 9.70215L16.2471 6.42578C16.4814 6.19141 16.8623 6.19141 17.0967 6.42578L19.0742 8.40332C19.3086 8.6377 19.3086 9.01855 19.0742 9.25293L15.7979 12.5L19.0742 15.7471Z" fill="#D5A2FE"/>
</g>
<defs>
<clipPath id="clip0_78_474">
<rect width="25" height="25" fill="white" transform="translate(0.5)"/>
</clipPath>
</defs>
</svg>
